<svg width="35" height="35" viewBox="0 0 35 35" fill="none" xmlns="http://www.w3.org/2000/svg">
<g clipPath="url(#clip0_358_631)">
<path d="M17.5 0C7.83524 0 0 7.83524 0 17.5C0 27.1648 7.83524 35 17.5 35C27.1648 35 35 27.1648 35 17.5C35 7.83524 27.1648 0 17.5 0ZM17.5 32.1252C9.42284 32.1252 2.87481 25.5772 2.87481 17.5C2.87481 9.42284 9.42284 2.87481 17.5 2.87481C25.5772 2.87481 32.1252 9.42284 32.1252 17.5C32.1252 25.5772 25.5772 32.1252 17.5 32.1252ZM23.0692 12.1227C23.281 12.7545 22.9395 13.4388 22.3071 13.6494C21.674 13.86 20.9903 13.5196 20.7804 12.8873C20.4931 12.0304 19.4624 11.0292 17.4994 11.0292C15.8743 11.0292 14.9106 12.122 14.7983 13.201C14.6607 14.5286 15.791 15.6076 17.7468 16.0167C21.6595 16.8356 22.8072 19.4521 22.6009 21.4441C22.3854 23.5284 20.7906 25.1759 18.7062 25.6428V27.1552C18.7062 27.8215 18.1655 28.3622 17.4993 28.3622C16.8331 28.3622 16.2924 27.8215 16.2924 27.1552V25.6852C13.8062 25.2851 12.3995 23.6782 11.9301 22.274C11.7183 21.6421 12.0598 20.9578 12.6922 20.7473C13.3234 20.5343 14.0083 20.877 14.2189 21.5095C14.5062 22.3663 15.5368 23.3675 17.4999 23.3675C19.125 23.3675 20.0887 22.2747 20.201 21.1957C20.3386 19.8681 19.2083 18.7891 17.2525 18.38C13.3398 17.5611 12.192 14.9446 12.3984 12.9526C12.6138 10.8683 14.2087 9.22087 16.293 8.75382V7.24138C16.293 6.57519 16.8337 6.03448 17.4999 6.03448C18.1661 6.03448 18.7068 6.57519 18.7068 7.24138V8.7114C21.1931 9.11145 22.5998 10.7185 23.0692 12.1227Z" fill="white"/>
</g>
<defs>
<clipPath id="clip0_358_631">
<rect width="35" height="35" fill="white"/>
</clipPath>
</defs>
</svg>
