<svg width="200" height="183" viewBox="0 0 200 183" fill="none" xmlns="http://www.w3.org/2000/svg">
<path d="M124.387 82H65.6381C62.1342 82 58.3754 79.1859 57.2379 75.7105L45.3274 39.2895C44.1899 35.8141 46.1118 33 49.6157 33H108.364C111.868 33 115.627 35.8141 116.765 39.2895L128.675 75.7105C129.806 79.1859 127.891 82 124.387 82Z" fill="#C26028"/>
<path opacity="0.9" d="M132.384 66H73.6375C70.1337 66 66.375 63.1859 65.2376 59.7105L53.3274 23.2895C52.1899 19.8141 54.1118 17 57.6156 17H116.363C119.866 17 123.625 19.8141 124.762 23.2895L136.673 59.7105C137.81 63.1794 135.888 66 132.384 66Z" fill="#EEC141"/>
<path opacity="0.9" d="M141.439 49H83.3918C79.9297 49 76.2158 46.1859 75.0919 42.7105L63.3235 6.28954C62.1996 2.81409 64.0985 0 67.5606 0H125.608C129.07 0 132.784 2.81409 133.908 6.28954L145.677 42.7105C146.8 46.1859 144.901 49 141.439 49Z" fill="#EEC141"/>
<path d="M44.6999 116.053C42.0037 116.053 39.8756 116.836 38.2631 118.357C36.6572 119.878 35.8738 121.922 35.8738 124.487C35.8738 127.053 36.6572 129.142 38.2631 130.702C39.869 132.269 42.0037 133.052 44.6999 133.052V132.967C47.396 132.967 49.5242 132.184 51.1367 130.617C52.7426 129.05 53.526 126.968 53.526 124.357C53.526 121.876 52.7426 119.878 51.1367 118.357C49.5307 116.836 47.396 116.053 44.6999 116.053Z" fill="#EEC141"/>
<path d="M48.9627 137.23H22.2625V135.363C22.2168 133.059 23.3527 131.884 25.6571 131.884H26.6559C28.8755 131.884 29.9592 130.793 29.9592 128.58V122.711C29.9592 120.492 28.869 119.408 26.6559 119.408H21.3942C17.0921 119.408 13.6126 120.629 11.0014 123.057C8.39008 125.492 7.09098 128.757 7.09098 132.797V137.23H3.26547C1.09158 137.23 0.00137885 138.32 0.00137885 140.533V147.492C-0.0443184 149.666 1.04589 150.757 3.26547 150.757H7.09098V178.456C7.09098 180.675 8.18118 181.759 10.3942 181.759H18.9592C21.1788 181.759 22.2625 180.669 22.2625 178.456V150.757H37.1336V178.456C37.0879 180.675 38.1782 181.759 40.3977 181.759H48.9627C51.1823 181.759 52.266 180.669 52.266 178.456V140.54C52.266 138.32 51.1823 137.23 48.9627 137.23Z" fill="#EEC141"/>
<path d="M148.217 141.271C144.522 137.791 139.606 136.055 133.477 136.055C127.347 136.055 122.431 137.752 118.736 141.186C115.041 144.62 113.167 149.144 113.167 154.797V164.015C113.167 169.668 115.034 174.186 118.775 177.626C122.516 181.06 127.516 182.757 133.731 182.757C139.123 182.757 143.556 181.667 147.036 179.493C150.515 177.319 152.604 174.408 153.257 170.713C153.518 169.623 153.342 168.8 152.78 168.232C152.212 167.664 151.436 167.41 150.476 167.41H141.043C139.913 167.41 138.914 168.017 138.001 169.192C137.087 170.497 135.65 171.15 133.698 171.15C132.047 171.15 130.741 170.713 129.742 169.845C128.744 168.976 128.267 167.801 128.267 166.326V163.891L150.443 163.845C152.663 163.845 153.747 162.755 153.747 160.581V155.143C153.74 149.359 151.912 144.75 148.217 141.271ZM138.431 154.882H128.215V152.532C128.215 151.056 128.691 149.881 129.651 149.013C130.604 148.145 131.858 147.714 133.411 147.707C134.965 147.714 136.179 148.145 137.087 149.013C138.001 149.881 138.431 151.056 138.431 152.532V154.882Z" fill="#EEC141"/>
<path d="M196.911 163.017H188.17C186.433 163.017 185.343 163.801 184.951 165.322C184.475 167.711 182.908 168.886 180.257 168.886C178.736 168.886 177.561 168.449 176.693 167.58C175.825 166.712 175.387 165.622 175.387 164.277V154.622C175.387 153.277 175.825 152.187 176.693 151.319C177.561 150.45 178.736 150.013 180.212 150.013C182.954 150.013 184.514 151.188 184.905 153.577C185.343 155.098 186.427 155.882 188.124 155.882H196.865C198.908 155.882 199.953 154.752 199.953 152.487C199.953 147.402 198.125 143.4 194.476 140.488C190.827 137.577 186.087 136.141 180.257 136.141C174.258 136.141 169.434 137.838 165.778 141.226C162.129 144.621 160.301 149.099 160.301 154.707V164.362C160.301 169.93 162.129 174.409 165.778 177.797C169.427 181.185 174.258 182.882 180.257 182.882V182.752C186.041 182.752 190.781 181.316 194.476 178.45C198.171 175.577 199.999 171.582 199.999 166.49C200.044 164.192 199 163.017 196.911 163.017Z" fill="#EEC141"/>
<path d="M106.809 121.367C106.809 119.715 105.471 118.377 103.819 118.377H93.8962C92.2446 118.377 90.9063 119.715 90.9063 121.367V135.794C90.9063 135.814 90.9128 135.833 90.9128 135.846V139.097C88.7063 137.792 85.6968 137.139 81.8713 137.139C75.7544 137.139 70.5645 139.372 66.3081 143.837C62.0191 148.328 59.8713 153.72 59.8713 160.007C59.8713 166.268 62.0191 171.647 66.3081 176.138C70.571 180.604 75.7544 182.836 81.8713 182.836C85.6968 182.836 88.7128 182.183 90.9128 180.878V179.226C90.9128 180.186 91.2915 181.041 92.0422 181.792C92.7407 182.49 93.6481 182.836 94.784 182.836H102.957C104.028 182.836 104.955 182.471 105.738 181.746C106.463 181.021 106.829 180.166 106.829 179.18V126.446C106.829 126.341 106.815 126.243 106.815 126.145V121.367H106.809ZM90.9128 164.192C90.828 167.436 89.5484 169.466 87.0873 170.276C85.7556 170.713 84.4238 170.824 83.0855 170.622C80.9378 170.622 79.0838 169.623 77.5235 167.619C75.898 165.445 75.0885 162.795 75.0885 159.661V159.139C75.0885 157.082 75.4671 155.242 76.2179 153.616C76.9425 151.964 77.8956 150.861 79.0903 150.313C81.6428 149.066 84.1888 148.935 86.7413 149.921C88.974 150.789 90.3645 151.964 90.9128 153.44V164.192Z" fill="#EEC141"/>
</svg>
