<svg width="40" height="40" viewBox="0 0 40 40" fill="none" xmlns="http://www.w3.org/2000/svg">
<path d="M1.88607 20.4772C2.78288 21.2767 3.67904 22.0326 4.57682 22.7441C5.76172 20.9447 7.05273 19.2946 8.45605 17.8034C8.19108 17.3044 8.04134 16.7344 8.04134 16.1305C8.04134 15.8324 8.07747 15.543 8.14681 15.2653C6.68066 14.3154 5.17188 13.2562 3.60091 12.0758C2.43913 14.4717 1.78874 17.1595 1.78874 19.9993H1.79264V20.0003H1.78841C1.78841 20.193 1.79232 20.3851 1.79818 20.5762L1.88607 20.4772ZM4.4681 10.4919C6.04069 11.6781 7.54557 12.7412 9.00521 13.6921C9.65625 12.9974 10.5827 12.5635 11.609 12.5635C12.4232 12.5635 13.1732 12.8366 13.7738 13.2959C14.2035 13.0111 14.6419 12.7363 15.0879 12.4743C16.946 11.3818 18.9398 10.4909 21.0807 9.8125C21.0651 9.67057 21.0579 9.52669 21.0579 9.38216C21.0579 8.83724 21.167 8.31771 21.3656 7.84538C19.1908 6.0026 16.6152 4.37077 13.6507 2.92904C11.1771 3.85026 8.95801 5.29362 7.12598 7.12565C6.11426 8.13639 5.22103 9.2666 4.4681 10.4919ZM16.1471 2.19824C18.4915 3.45996 20.583 4.85124 22.4137 6.38672C23.0257 5.85026 23.8037 5.4974 24.6598 5.41602C24.8519 4.47559 25.0332 3.51953 25.2054 2.54525C23.5557 2.05339 21.8089 1.78776 20.0007 1.78776V1.79167H19.999V1.78776C18.6774 1.78776 17.3893 1.93034 16.1471 2.19824ZM26.9141 3.15072C26.7627 3.99674 26.6042 4.83008 26.4382 5.65007C27.6318 6.09798 28.5537 7.10189 28.888 8.34668C30.5039 8.22787 32.1846 8.20475 33.9349 8.28158C33.5977 7.88151 33.2448 7.49479 32.875 7.12467C31.1829 5.43359 29.1611 4.07422 26.9141 3.15072ZM35.3206 10.1576C33.084 9.98991 30.9629 9.98568 28.9528 10.137C28.7881 10.9971 28.346 11.7588 27.7246 12.3258C28.2533 13.1406 28.7324 13.985 29.1605 14.86C29.7842 16.1364 30.2979 17.4769 30.7031 18.8815C30.8265 18.8688 30.9518 18.8617 31.0794 18.8617C32.6807 18.8617 34.0358 19.9163 34.487 21.3708C35.6673 21.4121 36.8877 21.4339 38.1546 21.4417C38.1921 20.9655 38.2122 20.4854 38.2122 20.0007H38.2083V19.9997V19.999H38.2122C38.2113 16.3743 37.1497 12.9964 35.3206 10.1576ZM37.9258 23.2243C36.7718 23.2161 35.6556 23.196 34.5719 23.1602C34.2826 24.5501 33.1833 25.6442 31.7897 25.9261C31.8509 27.5918 31.7936 29.3333 31.6133 31.1517C32.6351 31.0439 33.6712 30.8955 34.7256 30.709C36.3151 28.5286 37.4316 25.9841 37.9258 23.2243ZM35.7539 32.319L35.7578 32.3376L35.7363 32.3415C35.2412 32.9733 34.709 33.5742 34.1413 34.1419C30.5251 37.7581 25.5251 39.9954 20.0013 39.9961V40H20.0007H19.9997V39.9961C14.4759 39.9961 9.47624 37.7581 5.8584 34.1409C2.24186 30.5241 0.00423177 25.5241 0.00358073 20.0003H0V19.9993H0.00358073C0.00358073 14.4749 2.24186 9.47526 5.85905 5.85807C9.47624 2.24089 14.4749 0.00358073 19.999 0.00358073V0H20.0007V0.00358073C25.5251 0.00358073 30.5247 2.24121 34.1416 5.85905C37.7588 9.47526 39.9961 14.4749 39.9961 19.999H40V19.9997V20.0007H39.9961C39.9961 24.6488 38.4115 28.9248 35.7539 32.319ZM32.9554 32.7913C32.432 32.861 31.9131 32.9212 31.3978 32.971C31.3337 33.4316 31.2614 33.8968 31.1829 34.3675C31.7773 33.9046 32.3428 33.4066 32.875 32.8743L32.9554 32.7913ZM29.1081 35.7689C29.2904 34.8623 29.4453 33.9749 29.5732 33.1061C26.3112 33.2757 23.1937 33.0404 20.1768 32.4033C19.5869 33.1029 18.7051 33.5492 17.7188 33.5492C17.6455 33.5492 17.5732 33.5462 17.5023 33.542C16.9329 34.9941 16.3818 36.4069 15.8766 37.7412C17.2015 38.0482 18.5824 38.2116 19.9993 38.2116V38.2077H20.0003H20.001V38.2116C23.3177 38.2116 26.4284 37.3219 29.1081 35.7689ZM14.1546 37.2513C14.7077 35.7812 15.2598 34.362 15.8206 32.929C15.1143 32.4118 14.627 31.6123 14.5244 30.6963C11.2884 29.4141 8.15104 27.6351 5.04915 25.3564C4.55176 26.1943 4.07552 27.0628 3.61914 27.9622C4.51074 29.7913 5.7015 31.4508 7.12565 32.875C9.08171 34.8304 11.4788 36.3438 14.1546 37.2513ZM2.73633 25.8099C3.02344 25.2858 3.31803 24.7721 3.61979 24.2686C3.08919 23.8509 2.55892 23.4183 2.02962 22.9717C2.1901 23.9453 2.42773 24.8949 2.73633 25.8099ZM14.8796 14.7048C15.0706 15.1416 15.1771 15.6237 15.1771 16.1309C15.1771 16.472 15.1286 16.8024 15.0391 17.1149C16.999 18.0524 18.9255 18.7966 20.8779 19.3841C21.5876 17.2594 22.2695 15.0531 22.9046 12.7448C22.4056 12.4271 21.9824 12.002 21.6673 11.5016C19.6344 12.141 17.7461 12.9818 15.9906 14.0137C15.6149 14.2344 15.2435 14.4655 14.8796 14.7048ZM14.1243 18.6605C13.4795 19.3027 12.5905 19.6992 11.6087 19.6992C10.8919 19.6992 10.224 19.4873 9.66406 19.124C8.33919 20.543 7.11979 22.1159 5.99675 23.832C8.90527 25.9818 11.835 27.6699 14.8415 28.8988C15.3695 27.8454 16.4596 27.1217 17.7181 27.1217C17.8392 27.1217 17.958 27.1286 18.0762 27.1419C18.8239 25.1882 19.5732 23.1738 20.3005 21.0778C18.2324 20.4528 16.195 19.6602 14.1243 18.6605ZM26.1611 13.207C25.806 13.3102 25.4303 13.3656 25.0413 13.3656C24.891 13.3656 24.7419 13.3581 24.5957 13.3411C23.9697 15.6074 23.3008 17.7747 22.6048 19.8613C24.3138 20.2933 26.0573 20.6165 27.8766 20.8545C28.1413 20.3177 28.5365 19.8577 29.0218 19.5153C28.6393 18.1585 28.1484 16.8688 27.5505 15.6449C27.1383 14.8021 26.6748 13.9906 26.1611 13.207ZM29.9954 25.8291C28.6097 25.388 27.5911 24.1234 27.516 22.61C25.6253 22.3584 23.8096 22.0173 22.0277 21.5609C21.276 23.7295 20.5016 25.8122 19.7288 27.8294C20.4619 28.4186 20.9313 29.3229 20.9313 30.3356C20.9313 30.4691 20.9225 30.6003 20.9069 30.7298C23.7572 31.2966 26.708 31.488 29.8011 31.3018C30.0049 29.3854 30.0684 27.5622 29.9954 25.8291Z" fill="white"/>
</svg>
