<svg width="35" height="35" viewBox="0 0 35 35" fill="none" xmlns="http://www.w3.org/2000/svg">
<path d="M18.9522 33.2966C13.8288 33.2966 9.00039 30.7972 6.03605 26.6108C5.13976 25.3449 4.43671 23.9595 3.94727 22.4935L6.10098 21.7743C6.51974 23.0287 7.12175 24.2146 7.88895 25.2988C10.4284 28.8855 14.5645 31.0261 18.9522 31.0261C26.4218 31.0261 32.4984 24.9496 32.4984 17.48C32.4984 10.0107 26.4218 3.93418 18.9522 3.93418C11.483 3.93418 5.406 10.0111 5.406 17.4804H3.1355C3.1355 8.75909 10.2305 1.66406 18.9518 1.66406C27.6734 1.66406 34.7685 8.75909 34.7685 17.4804C34.7685 26.2016 27.6734 33.2966 18.9522 33.2966Z" fill="white"/>
<path d="M25.0373 23.892L17.8186 18.0218V7.50293H20.0853V16.9384L26.4703 22.1286L25.0373 23.892Z" fill="white"/>
<path d="M8.34852 15.7168L4.27237 19.7929L0.192383 15.7168H8.34852Z" fill="white"/>
</svg>
