<svg width="35" height="35" viewBox="0 0 35 35" fill="none" xmlns="http://www.w3.org/2000/svg">
<g clipPath="url(#clip0_363_153)">
<path d="M13.3575 34.7682C13.1004 34.7682 12.8434 34.7175 12.5987 34.6164L8.81645 33.0494C8.327 32.8469 7.94551 32.4658 7.74267 31.9756C7.53982 31.4861 7.53982 30.9464 7.74267 30.4569C8.20983 29.329 7.77148 28.3216 7.2052 27.7554C6.63892 27.1887 5.63237 26.7507 4.50326 27.2179C4.0142 27.4211 3.47481 27.4207 2.98498 27.2183C2.49516 27.0154 2.11367 26.6343 1.9112 26.1445L0.344518 22.3626C-0.0738537 21.3522 0.407523 20.1893 1.41792 19.7702C2.54664 19.303 2.94849 18.2811 2.94849 17.4801C2.94849 16.6795 2.54664 15.6572 1.4183 15.1896C0.928855 14.9868 0.547365 14.6057 0.344518 14.1158C0.141671 13.6264 0.141671 13.087 0.344518 12.5975L1.9112 8.81568C2.32996 7.8049 3.49402 7.32391 4.50326 7.7419C5.63121 8.20906 6.63853 7.77071 7.2052 7.20443C7.77148 6.63815 8.21021 5.63121 7.74267 4.50288C7.32391 3.4921 7.80567 2.32957 8.81645 1.91082L12.5983 0.344518C13.0878 0.141671 13.6271 0.141671 14.117 0.344518C14.6068 0.547365 14.9883 0.928855 15.1908 1.41868C15.6579 2.54664 16.6802 2.94849 17.4812 2.94849C18.2822 2.94849 19.3042 2.54664 19.7717 1.4183C20.1905 0.407523 21.3526 -0.0742379 22.3642 0.344518L26.1464 1.91082C26.6359 2.11367 27.0173 2.49477 27.2202 2.9846C27.4227 3.47405 27.4227 4.01382 27.2198 4.50326C26.7523 5.63121 27.1914 6.63815 27.7573 7.20443C28.3239 7.77071 29.3313 8.20906 30.4588 7.7419C30.9494 7.53905 31.4884 7.53944 31.9775 7.7419C32.4673 7.94475 32.8488 8.32623 33.0517 8.81606L34.618 12.5975C35.0363 13.6083 34.5546 14.7712 33.5442 15.1896C32.4158 15.6572 32.014 16.6795 32.014 17.4801C32.014 18.2811 32.4158 19.303 33.5442 19.7706H33.5446C34.5546 20.1897 35.0363 21.3522 34.6183 22.3626L33.0513 26.1449C32.8488 26.6339 32.4673 27.0154 31.9775 27.2187C31.4884 27.4215 30.9483 27.4215 30.4584 27.2183C29.3313 26.7507 28.3236 27.1898 27.7573 27.7557C27.191 28.3224 26.7526 29.3293 27.2198 30.4573C27.4227 30.9467 27.4227 31.4861 27.2202 31.976C27.0173 32.4658 26.6359 32.8469 26.146 33.0501L22.3642 34.6164C21.3538 35.0352 20.1909 34.5526 19.7717 33.543C19.3042 32.4143 18.2822 32.0121 17.4812 32.0121C16.6806 32.0121 15.6579 32.4143 15.1908 33.5426C14.9883 34.0317 14.6068 34.4132 14.1174 34.6164C13.8719 34.7175 13.6145 34.7682 13.3575 34.7682ZM9.98551 31.0389L13.193 32.3678C14.0017 30.7181 15.6172 29.707 17.4809 29.707C19.3449 29.707 20.96 30.7185 21.7683 32.3678L24.9754 31.0389C24.3811 29.3009 24.8083 27.4438 26.1264 26.126C27.4445 24.8079 29.3017 24.3803 31.0397 24.975L32.3686 21.7679C30.7189 20.9596 29.7078 19.3441 29.7078 17.4805C29.7078 15.6164 30.7189 14.001 32.3686 13.1923L31.0397 9.98474C29.3021 10.5798 27.4442 10.1519 26.1264 8.83451C24.8079 7.51638 24.3811 5.65926 24.9754 3.92123L21.7683 2.59274C20.9604 4.24202 19.3449 5.25318 17.4809 5.25318C15.6168 5.25318 14.0013 4.24202 13.1926 2.59274L9.98512 3.92123C10.5798 5.65926 10.1526 7.51638 8.8345 8.83451C7.51638 10.1526 5.65964 10.5802 3.92123 9.98474L2.59274 13.1923C4.2424 14.001 5.25357 15.6164 5.25357 17.4805C5.25357 19.3445 4.2424 20.9596 2.59274 21.7679L3.92123 24.975C5.65964 24.3807 7.51677 24.8079 8.8345 26.1257C10.153 27.4438 10.5802 29.3009 9.98551 31.0389ZM32.6598 21.8993C32.6602 21.8993 32.6606 21.8993 32.6609 21.8997C32.6606 21.8993 32.6602 21.8993 32.6598 21.8993ZM17.4809 25.4637C13.0789 25.4637 9.49721 21.8824 9.49721 17.4801C9.49721 13.0778 13.0789 9.49645 17.4809 9.49645C21.8828 9.49645 25.4649 13.0778 25.4649 17.4801C25.4649 21.8824 21.8832 25.4637 17.4809 25.4637ZM17.4809 11.8011C14.3498 11.8011 11.8023 14.349 11.8023 17.4801C11.8023 20.6115 14.3498 23.159 17.4809 23.159C20.6123 23.159 23.1598 20.6115 23.1598 17.4801C23.1598 14.349 20.6127 11.8011 17.4809 11.8011Z" fill="white"/>
</g>
<defs>
<clipPath id="clip0_363_153">
<rect width="35" height="35" fill="white"/>
</clipPath>
</defs>
</svg>
