<svg width="42" height="34" viewBox="0 0 42 34" fill="none" xmlns="http://www.w3.org/2000/svg">
<path d="M33.3141 33.75H8.66062C7.19024 33.75 5.61288 32.587 5.13556 31.1508L0.137378 16.0992C-0.339946 14.663 0.466566 13.5 1.93694 13.5H26.5904C28.0608 13.5 29.6382 14.663 30.1155 16.0992L35.1137 31.1508C35.5882 32.587 34.7845 33.75 33.3141 33.75Z" fill="#C26028"/>
<path opacity="0.9" d="M36.3131 27H11.6604C10.19 27 8.61271 25.837 8.1354 24.4008L3.13737 9.34924C2.66006 7.91296 3.46655 6.75 4.93688 6.75H29.5896C31.06 6.75 32.6373 7.91296 33.1146 9.34924L38.1126 24.4008C38.5899 25.8344 37.7834 27 36.3131 27Z" fill="#EEC141"/>
<path opacity="0.9" d="M40.1043 20.25H15.9761C14.5371 20.25 12.9933 19.087 12.5261 17.6508L7.63445 2.59925C7.1673 1.16296 7.95663 0 9.39567 0H33.5239C34.963 0 36.5067 1.16296 36.9739 2.59925L41.8656 17.6508C42.3327 19.087 41.5434 20.25 40.1043 20.25Z" fill="#EEC141"/>
</svg>
