<svg width="176" height="45" viewBox="0 0 176 45" fill="none" xmlns="http://www.w3.org/2000/svg">
<path d="M44.4188 45H11.5475C9.58699 45 7.48384 43.4494 6.84741 41.5343L0.18317 21.4657C-0.453261 19.5506 0.622087 18 2.58259 18H35.4539C37.4144 18 39.5175 19.5506 40.154 21.4657L46.8182 41.5343C47.451 43.4494 46.3793 45 44.4188 45Z" fill="#C26028"/>
<path opacity="0.9" d="M48.4175 36H15.5471C13.5867 36 11.4836 34.4494 10.8472 32.5343L4.18316 12.4657C3.54675 10.5506 4.62207 9 6.58251 9H39.4529C41.4133 9 43.5164 10.5506 44.1528 12.4657L50.8168 32.5343C51.4533 34.4458 50.3779 36 48.4175 36Z" fill="#EEC141"/>
<path opacity="0.9" d="M53.4724 27H21.3015C19.3827 27 17.3244 25.4494 16.7015 23.5343L10.1793 3.46567C9.5564 1.55062 10.6088 0 12.5276 0H44.6985C46.6173 0 48.6756 1.55062 49.2985 3.46567L55.8207 23.5343C56.4436 25.4494 55.3912 27 53.4724 27Z" fill="#EEC141"/>
<path d="M90.5849 5C89.1021 5 87.9316 5.43087 87.0447 6.26746C86.1615 7.10404 85.7306 8.22786 85.7306 9.63893C85.7306 11.05 86.1615 12.1989 87.0447 13.0571C87.928 13.9188 89.1021 14.3497 90.5849 14.3497V14.303C92.0678 14.303 93.2383 13.8721 94.1252 13.0104C95.0084 12.1487 95.4393 11.0033 95.4393 9.56711C95.4393 8.20272 95.0084 7.10404 94.1252 6.26746C93.2419 5.43087 92.0678 5 90.5849 5Z" fill="#EEC141"/>
<path d="M92.9295 16.6478H78.2444V15.6209C78.2192 14.3534 78.844 13.7071 80.1114 13.7071H80.6608C81.8815 13.7071 82.4776 13.1075 82.4776 11.8903V8.66249C82.4776 7.44172 81.8779 6.8457 80.6608 6.8457H77.7668C75.4007 6.8457 73.4869 7.51713 72.0507 8.85279C70.6145 10.192 69.9 11.9873 69.9 14.2098V16.6478H67.796C66.6004 16.6478 66.0008 17.2474 66.0008 18.4646V22.292C65.9756 23.4877 66.5752 24.0873 67.796 24.0873H69.9V39.3218C69.9 40.5425 70.4997 41.1386 71.7168 41.1386H76.4276C77.6483 41.1386 78.2444 40.5389 78.2444 39.3218V24.0873H86.4235V39.3218C86.3984 40.5425 86.998 41.1386 88.2188 41.1386H92.9295C94.1503 41.1386 94.7463 40.5389 94.7463 39.3218V18.4681C94.7463 17.2474 94.1503 16.6478 92.9295 16.6478Z" fill="#EEC141"/>
<path d="M147.519 18.8698C145.487 16.956 142.784 16.001 139.412 16.001C136.041 16.001 133.337 16.9345 131.305 18.8231C129.273 20.7117 128.242 23.1999 128.242 26.3093V31.3791C128.242 34.4885 129.269 36.9731 131.326 38.8653C133.384 40.7539 136.134 41.6874 139.552 41.6874C142.518 41.6874 144.956 41.0878 146.87 39.8921C148.783 38.6965 149.932 37.0952 150.291 35.0629C150.435 34.4633 150.338 34.0109 150.029 33.6985C149.717 33.3862 149.29 33.2462 148.762 33.2462H143.573C142.952 33.2462 142.403 33.5801 141.9 34.2264C141.398 34.9445 140.608 35.3035 139.534 35.3035C138.626 35.3035 137.908 35.0629 137.358 34.5854C136.809 34.1079 136.547 33.4616 136.547 32.6501V31.3109L148.744 31.2857C149.965 31.2857 150.561 30.6861 150.561 29.4905V26.4996C150.557 23.3184 149.552 20.7835 147.519 18.8698ZM142.137 26.356H136.518V25.0634C136.518 24.2519 136.78 23.6056 137.308 23.1281C137.832 22.6506 138.522 22.4136 139.376 22.41C140.231 22.4136 140.899 22.6506 141.398 23.1281C141.9 23.6056 142.137 24.2519 142.137 25.0634V26.356Z" fill="#EEC141"/>
<path d="M174.301 30.8309H169.493C168.538 30.8309 167.939 31.2618 167.723 32.0984C167.461 33.4125 166.599 34.0588 165.142 34.0588C164.305 34.0588 163.659 33.8182 163.181 33.3407C162.704 32.8631 162.463 32.2635 162.463 31.5239V26.2135C162.463 25.4739 162.704 24.8743 163.181 24.3967C163.659 23.9192 164.305 23.6786 165.117 23.6786C166.625 23.6786 167.483 24.3249 167.698 25.6391C167.939 26.4756 168.535 26.9065 169.468 26.9065H174.276C175.4 26.9065 175.974 26.2853 175.974 25.0394C175.974 22.2424 174.969 20.0415 172.962 18.4401C170.955 16.8387 168.348 16.0488 165.142 16.0488C161.842 16.0488 159.189 16.9823 157.178 18.8458C155.171 20.7129 154.166 23.176 154.166 26.2602V31.5705C154.166 34.6332 155.171 37.0963 157.178 38.9598C159.185 40.8233 161.842 41.7568 165.142 41.7568V41.685C168.323 41.685 170.93 40.8951 172.962 39.3188C174.994 37.739 175.999 35.5416 175.999 32.7411C176.024 31.4772 175.45 30.8309 174.301 30.8309Z" fill="#EEC141"/>
<path d="M124.745 7.92276C124.745 7.01437 124.009 6.27832 123.101 6.27832H117.643C116.735 6.27832 115.999 7.01437 115.999 7.92276V15.8578C115.999 15.8685 116.002 15.8793 116.002 15.8865V17.6745C114.789 16.9564 113.133 16.5974 111.029 16.5974C107.665 16.5974 104.811 17.8254 102.47 20.2813C100.111 22.7515 98.9293 25.7173 98.9293 29.1749C98.9293 32.6182 100.111 35.5768 102.47 38.0471C104.814 40.503 107.665 41.7309 111.029 41.7309C113.133 41.7309 114.792 41.3718 116.002 40.6537V39.7454C116.002 40.2732 116.21 40.7435 116.623 41.1564C117.007 41.5406 117.507 41.7309 118.131 41.7309H122.627C123.215 41.7309 123.725 41.5298 124.156 41.1313C124.555 40.7327 124.756 40.2624 124.756 39.7202V10.7162C124.756 10.6587 124.749 10.6049 124.749 10.551V7.92276H124.745ZM116.002 31.4764C115.955 33.2609 115.252 34.3776 113.898 34.8228C113.166 35.0633 112.433 35.1244 111.697 35.0131C110.516 35.0131 109.496 34.4637 108.638 33.3614C107.744 32.1658 107.299 30.7081 107.299 28.9846V28.6974C107.299 27.5664 107.507 26.5539 107.92 25.6598C108.318 24.7514 108.843 24.1446 109.5 23.843C110.904 23.1573 112.304 23.0854 113.708 23.6276C114.936 24.1051 115.701 24.7514 116.002 25.5629V31.4764Z" fill="#EEC141"/>
</svg>
